<svg version="1" xmlns="http://www.w3.org/2000/svg" width="178.667" height="178.667" viewBox="0 0 134.000000 134.000000"><path d="M77.5 21.7c-1.4 1.5-2.5 3.1-2.5 3.5 0 .3-2 1.6-4.4 2.8-2.4 1.1-5 2.7-5.6 3.5-1.8 2.2-1.9 6.9-.3 14.3.8 3.7 1.2 9.3 1 12.4-.5 6-5 17.3-6.5 16.4-.5-.3-.9-3.4-1-7-.1-9.5-4.6-18.6-9.1-18.6C45.6 49 38 62.6 36 72.4c-1 4.9-2.1 6.8-6.5 11.6-3 3.2-6.5 7.6-7.8 9.7-3.4 5.3-5.6 7.1-12.4 9.9-14.2 5.8 6.2-.1 23.7-6.9 12.5-4.8 32.4-14.6 43.8-21.5 4.5-2.8 8.2-4.7 8.2-4.4 0 1.2-21.4 15-31 19.9-5.2 2.7-13.7 6.6-18.8 8.8-5.1 2.1-9.1 3.9-9 4 .2.2 5.4 1.7 11.7 3.5l11.5 3.2 2.7-3.3 2.8-3.4 3.3 1.9c1.8 1 4.7 2.6 6.3 3.6 1.7.9 6.1 2.7 9.8 4 5.9 1.9 7.1 2 8.3.8 1.2-1.1 1.1-2.2-.2-7-2.1-7.3-6-11.9-12.9-15.2-3-1.4-5.5-2.8-5.5-3 0-.3 2.8-.4 6.3-.2 9.7.4 16 4.7 19.7 13.2 1 2.3 2.9 4.9 4.1 5.8 2.9 2 8.9 2.1 11.5.1 1-.8 3.5-1.5 5.5-1.5s4.7-.8 6-1.9c1.3-1 4.1-2.4 6.1-3 7.5-2.5 5.4-6.8-8.7-17.4-6-4.6-10.2-8.4-9.9-9.1.3-.7 4.9-2.7 10.4-4.5 11.1-3.6 15.9-6.4 17.8-10.4 1.2-2.4 1.1-3.2-.3-5.3-.9-1.4-1.8-4.6-2-7.1-.2-2.5-.9-5-1.7-5.5-2.1-1.4-9.2-.1-14.8 2.7-7.4 3.8-8.4 3.3-9-4.5-.4-5.6-.8-6.5-2.5-6.8-1.2-.2-3.7 1.2-6 3.1-6.6 5.6-7.2 5.5-8.4-1.7-.6-3.4-1.1-7.6-1.1-9.2-.1-6.4-5.1-8.4-9.5-3.7zM89 68.4c0 .2-.7.7-1.6 1-.8.3-1.2.2-.9-.4.6-1 2.5-1.4 2.5-.6z"/></svg>